<mxfile host="app.diagrams.net" modified="2023-03-06T21:32:40.992Z" agent="5.0 (X11; Ubuntu)" etag="7fPzco32A4IM_S3R1qqw" version="21.0.2" type="github">
  <diagram name="Page-1" id="e7e014a7-5840-1c2e-5031-d8a46d1fe8dd">
    <mxGraphModel dx="1600" dy="751" grid="1" gridSize="10" guides="1" tooltips="1" connect="1" arrows="1" fold="1" page="1" pageScale="1" pageWidth="1169" pageHeight="826" background="none" math="0" shadow="0">
      <root>
        <mxCell id="0" />
        <mxCell id="1" parent="0" />
        <mxCell id="hJeXfJ9joHmPJ0TFAOnG-43" value="" style="edgeStyle=orthogonalEdgeStyle;rounded=0;orthogonalLoop=1;jettySize=auto;html=1;strokeColor=#000000;entryX=-0.036;entryY=0.5;entryDx=0;entryDy=0;entryPerimeter=0;" parent="1" source="hJeXfJ9joHmPJ0TFAOnG-39" target="hJeXfJ9joHmPJ0TFAOnG-42" edge="1">
          <mxGeometry relative="1" as="geometry" />
        </mxCell>
        <mxCell id="LdhuR25lk1DsIXaJExgV-56" style="edgeStyle=orthogonalEdgeStyle;rounded=0;orthogonalLoop=1;jettySize=auto;html=1;" parent="1" source="10" target="18" edge="1">
          <mxGeometry relative="1" as="geometry" />
        </mxCell>
        <mxCell id="2" value="Thread 1" style="swimlane;whiteSpace=wrap" parent="1" vertex="1">
          <mxGeometry x="164.5" y="128" width="285.5" height="570" as="geometry" />
        </mxCell>
        <mxCell id="LdhuR25lk1DsIXaJExgV-53" value="" style="edgeStyle=orthogonalEdgeStyle;rounded=0;orthogonalLoop=1;jettySize=auto;html=1;" parent="2" source="5" target="7" edge="1">
          <mxGeometry relative="1" as="geometry" />
        </mxCell>
        <mxCell id="5" value="" style="ellipse;shape=startState;fillColor=#000000;strokeColor=#ff0000;" parent="2" vertex="1">
          <mxGeometry x="100" y="40" width="30" height="30" as="geometry" />
        </mxCell>
        <mxCell id="LdhuR25lk1DsIXaJExgV-54" value="" style="edgeStyle=orthogonalEdgeStyle;rounded=0;orthogonalLoop=1;jettySize=auto;html=1;" parent="2" source="7" target="8" edge="1">
          <mxGeometry relative="1" as="geometry" />
        </mxCell>
        <mxCell id="7" value="Gain Admin&#xa;Privileges" style="" parent="2" vertex="1">
          <mxGeometry x="60" y="110" width="110" height="50" as="geometry" />
        </mxCell>
        <mxCell id="LdhuR25lk1DsIXaJExgV-55" value="" style="edgeStyle=orthogonalEdgeStyle;rounded=0;orthogonalLoop=1;jettySize=auto;html=1;" parent="2" source="8" target="10" edge="1">
          <mxGeometry relative="1" as="geometry" />
        </mxCell>
        <mxCell id="LdhuR25lk1DsIXaJExgV-71" value="" style="edgeStyle=orthogonalEdgeStyle;rounded=0;orthogonalLoop=1;jettySize=auto;html=1;" parent="2" source="8" target="LdhuR25lk1DsIXaJExgV-70" edge="1">
          <mxGeometry relative="1" as="geometry" />
        </mxCell>
        <mxCell id="8" value="Login" style="" parent="2" vertex="1">
          <mxGeometry x="60" y="220" width="110" height="50" as="geometry" />
        </mxCell>
        <mxCell id="LdhuR25lk1DsIXaJExgV-68" value="" style="edgeStyle=orthogonalEdgeStyle;rounded=0;orthogonalLoop=1;jettySize=auto;html=1;" parent="2" source="10" target="LdhuR25lk1DsIXaJExgV-67" edge="1">
          <mxGeometry relative="1" as="geometry" />
        </mxCell>
        <mxCell id="10" value="Verify Login" style="" parent="2" vertex="1">
          <mxGeometry x="60" y="325" width="110" height="50" as="geometry" />
        </mxCell>
        <mxCell id="LdhuR25lk1DsIXaJExgV-69" style="edgeStyle=orthogonalEdgeStyle;rounded=0;orthogonalLoop=1;jettySize=auto;html=1;exitX=0;exitY=0.5;exitDx=0;exitDy=0;entryX=-0.005;entryY=0.56;entryDx=0;entryDy=0;entryPerimeter=0;strokeColor=#FF0000;" parent="2" source="LdhuR25lk1DsIXaJExgV-67" target="10" edge="1">
          <mxGeometry relative="1" as="geometry" />
        </mxCell>
        <mxCell id="LdhuR25lk1DsIXaJExgV-67" value="&lt;div&gt;Login&lt;/div&gt;&lt;div&gt;NOT&lt;/div&gt;&lt;div&gt;Verified&lt;br&gt;&lt;/div&gt;" style="rhombus;whiteSpace=wrap;html=1;fillColor=rgb(255, 255, 255);" parent="2" vertex="1">
          <mxGeometry x="75" y="440" width="80" height="80" as="geometry" />
        </mxCell>
        <mxCell id="LdhuR25lk1DsIXaJExgV-72" style="edgeStyle=orthogonalEdgeStyle;rounded=0;orthogonalLoop=1;jettySize=auto;html=1;exitX=0.5;exitY=0;exitDx=0;exitDy=0;entryX=0.705;entryY=0.02;entryDx=0;entryDy=0;entryPerimeter=0;strokeColor=#FF0000;" parent="2" source="LdhuR25lk1DsIXaJExgV-70" target="8" edge="1">
          <mxGeometry relative="1" as="geometry" />
        </mxCell>
        <mxCell id="LdhuR25lk1DsIXaJExgV-70" value="&lt;div&gt;Login&lt;/div&gt;&lt;div&gt;Failed&lt;br&gt;&lt;/div&gt;" style="rhombus;whiteSpace=wrap;html=1;fillColor=rgb(255, 255, 255);" parent="2" vertex="1">
          <mxGeometry x="185.5" y="205" width="80" height="80" as="geometry" />
        </mxCell>
        <mxCell id="3" value="Thread 2" style="swimlane;whiteSpace=wrap" parent="1" vertex="1">
          <mxGeometry x="450" y="128" width="280" height="572" as="geometry" />
        </mxCell>
        <mxCell id="LdhuR25lk1DsIXaJExgV-61" value="" style="edgeStyle=orthogonalEdgeStyle;rounded=0;orthogonalLoop=1;jettySize=auto;html=1;" parent="3" source="13" target="15" edge="1">
          <mxGeometry relative="1" as="geometry" />
        </mxCell>
        <mxCell id="13" value="" style="ellipse;shape=startState;fillColor=#000000;strokeColor=#ff0000;" parent="3" vertex="1">
          <mxGeometry x="60" y="40" width="30" height="30" as="geometry" />
        </mxCell>
        <mxCell id="LdhuR25lk1DsIXaJExgV-50" value="" style="edgeStyle=orthogonalEdgeStyle;rounded=0;orthogonalLoop=1;jettySize=auto;html=1;" parent="3" source="15" target="LdhuR25lk1DsIXaJExgV-49" edge="1">
          <mxGeometry relative="1" as="geometry" />
        </mxCell>
        <mxCell id="LdhuR25lk1DsIXaJExgV-57" value="" style="edgeStyle=orthogonalEdgeStyle;rounded=0;orthogonalLoop=1;jettySize=auto;html=1;" parent="3" source="15" target="16" edge="1">
          <mxGeometry relative="1" as="geometry" />
        </mxCell>
        <mxCell id="15" value="Login" style="" parent="3" vertex="1">
          <mxGeometry x="20" y="110" width="110" height="50" as="geometry" />
        </mxCell>
        <mxCell id="LdhuR25lk1DsIXaJExgV-52" value="" style="edgeStyle=orthogonalEdgeStyle;rounded=0;orthogonalLoop=1;jettySize=auto;html=1;" parent="3" source="16" target="LdhuR25lk1DsIXaJExgV-51" edge="1">
          <mxGeometry relative="1" as="geometry" />
        </mxCell>
        <mxCell id="LdhuR25lk1DsIXaJExgV-58" value="" style="edgeStyle=orthogonalEdgeStyle;rounded=0;orthogonalLoop=1;jettySize=auto;html=1;" parent="3" source="16" target="18" edge="1">
          <mxGeometry relative="1" as="geometry" />
        </mxCell>
        <mxCell id="16" value="Verify Login" style="" parent="3" vertex="1">
          <mxGeometry x="20" y="220" width="110" height="50" as="geometry" />
        </mxCell>
        <mxCell id="hJeXfJ9joHmPJ0TFAOnG-41" style="edgeStyle=orthogonalEdgeStyle;rounded=0;orthogonalLoop=1;jettySize=auto;html=1;entryX=0;entryY=0.52;entryDx=0;entryDy=0;entryPerimeter=0;strokeColor=#000000;" parent="3" source="18" target="hJeXfJ9joHmPJ0TFAOnG-39" edge="1">
          <mxGeometry relative="1" as="geometry" />
        </mxCell>
        <mxCell id="18" value="Menu" style="" parent="3" vertex="1">
          <mxGeometry x="20" y="325" width="110" height="50" as="geometry" />
        </mxCell>
        <mxCell id="LdhuR25lk1DsIXaJExgV-60" style="edgeStyle=orthogonalEdgeStyle;rounded=0;orthogonalLoop=1;jettySize=auto;html=1;exitX=0.5;exitY=0;exitDx=0;exitDy=0;entryX=0.723;entryY=0.02;entryDx=0;entryDy=0;entryPerimeter=0;strokeColor=#FF0000;" parent="3" source="LdhuR25lk1DsIXaJExgV-49" target="15" edge="1">
          <mxGeometry relative="1" as="geometry" />
        </mxCell>
        <mxCell id="LdhuR25lk1DsIXaJExgV-49" value="&lt;div&gt;Login&lt;/div&gt;&lt;div&gt;Failed&lt;br&gt;&lt;/div&gt;" style="rhombus;whiteSpace=wrap;html=1;fillColor=rgb(255, 255, 255);" parent="3" vertex="1">
          <mxGeometry x="170.5" y="95" width="80" height="80" as="geometry" />
        </mxCell>
        <mxCell id="LdhuR25lk1DsIXaJExgV-59" style="edgeStyle=orthogonalEdgeStyle;rounded=0;orthogonalLoop=1;jettySize=auto;html=1;exitX=0.5;exitY=0;exitDx=0;exitDy=0;entryX=0.686;entryY=0;entryDx=0;entryDy=0;entryPerimeter=0;strokeColor=#FF0000;" parent="3" source="LdhuR25lk1DsIXaJExgV-51" target="16" edge="1">
          <mxGeometry relative="1" as="geometry" />
        </mxCell>
        <mxCell id="LdhuR25lk1DsIXaJExgV-51" value="&lt;div&gt;Login&lt;/div&gt;&lt;div&gt;NOT&lt;br&gt;&lt;/div&gt;&lt;div&gt;Verified&lt;br&gt;&lt;/div&gt;" style="rhombus;whiteSpace=wrap;html=1;fillColor=rgb(255, 255, 255);" parent="3" vertex="1">
          <mxGeometry x="170.5" y="205" width="80" height="80" as="geometry" />
        </mxCell>
        <mxCell id="hJeXfJ9joHmPJ0TFAOnG-39" value="Logout" style="fillColor=rgb(255, 255, 255);strokeColor=rgb(0, 0, 0);fontColor=rgb(0, 0, 0);" parent="3" vertex="1">
          <mxGeometry x="130" y="392" width="110" height="50" as="geometry" />
        </mxCell>
        <mxCell id="4" value="Thread 3" style="swimlane;whiteSpace=wrap" parent="1" vertex="1">
          <mxGeometry x="730" y="128" width="370" height="570" as="geometry" />
        </mxCell>
        <mxCell id="38" value="" style="ellipse;shape=endState;fillColor=#000000;strokeColor=#ff0000" parent="4" vertex="1">
          <mxGeometry x="265" y="492" width="30" height="30" as="geometry" />
        </mxCell>
        <mxCell id="no-FgJv35wXuLeluLs2J-44" value="YES" style="edgeStyle=orthogonalEdgeStyle;rounded=0;orthogonalLoop=1;jettySize=auto;html=1;exitX=0.5;exitY=1;exitDx=0;exitDy=0;entryX=1;entryY=0.5;entryDx=0;entryDy=0;" parent="4" edge="1">
          <mxGeometry relative="1" as="geometry">
            <mxPoint x="320" y="350" as="targetPoint" />
          </mxGeometry>
        </mxCell>
        <mxCell id="no-FgJv35wXuLeluLs2J-45" value="NO" style="edgeStyle=orthogonalEdgeStyle;rounded=0;orthogonalLoop=1;jettySize=auto;html=1;exitX=0.5;exitY=0;exitDx=0;exitDy=0;entryX=0;entryY=0.14;entryDx=0;entryDy=0;entryPerimeter=0;" parent="4" edge="1">
          <mxGeometry relative="1" as="geometry">
            <mxPoint x="60" y="332" as="targetPoint" />
            <Array as="points">
              <mxPoint x="280" y="153" />
              <mxPoint x="20" y="153" />
              <mxPoint x="20" y="332" />
            </Array>
          </mxGeometry>
        </mxCell>
        <mxCell id="hJeXfJ9joHmPJ0TFAOnG-45" value="" style="edgeStyle=orthogonalEdgeStyle;rounded=0;orthogonalLoop=1;jettySize=auto;html=1;strokeColor=#000000;entryX=-0.045;entryY=0.5;entryDx=0;entryDy=0;entryPerimeter=0;" parent="4" source="hJeXfJ9joHmPJ0TFAOnG-42" target="hJeXfJ9joHmPJ0TFAOnG-44" edge="1">
          <mxGeometry relative="1" as="geometry" />
        </mxCell>
        <mxCell id="hJeXfJ9joHmPJ0TFAOnG-42" value="Logout" style="fillColor=rgb(255, 255, 255);strokeColor=rgb(0, 0, 0);fontColor=rgb(0, 0, 0);" parent="4" vertex="1">
          <mxGeometry x="40" y="392" width="110" height="50" as="geometry" />
        </mxCell>
        <mxCell id="hJeXfJ9joHmPJ0TFAOnG-46" value="" style="edgeStyle=orthogonalEdgeStyle;rounded=0;orthogonalLoop=1;jettySize=auto;html=1;strokeColor=#000000;" parent="4" source="hJeXfJ9joHmPJ0TFAOnG-44" target="38" edge="1">
          <mxGeometry relative="1" as="geometry" />
        </mxCell>
        <mxCell id="hJeXfJ9joHmPJ0TFAOnG-44" value="Confirm&#xa;Logout&#xa;" style="fillColor=rgb(255, 255, 255);strokeColor=rgb(0, 0, 0);fontColor=rgb(0, 0, 0);" parent="4" vertex="1">
          <mxGeometry x="225" y="392" width="110" height="50" as="geometry" />
        </mxCell>
      </root>
    </mxGraphModel>
  </diagram>
</mxfile>
